<svg width="95" height="73" viewBox="0 0 95 73" fill="none" xmlns="http://www.w3.org/2000/svg">
<path d="M14.179 64.0645L31.1519 71.1224C31.1624 71.1267 31.1733 71.1303 31.1838 71.1346C31.1942 71.139 31.2072 71.1454 31.2193 71.1504C36.1721 73.2096 41.6897 73.4714 46.8157 71.8904C51.9416 70.3094 56.3529 66.9853 59.2857 62.4939C64.5322 63.611 70.004 62.8579 74.7537 60.3648C79.5035 57.8717 83.2314 53.7958 85.2917 48.8434L92.3515 31.8714C94.5506 26.5825 94.695 20.6632 92.7564 15.2738C90.8178 9.88431 86.936 5.41312 81.8718 2.73682C76.8077 0.0608112 70.9264 -0.627736 65.3808 0.806674C59.8351 2.24108 55.0249 5.6947 51.8933 10.4907C47.3571 9.52491 42.6348 9.95405 38.3469 11.7213C34.0589 13.4889 30.4061 16.5122 27.8681 20.394C22.2633 19.1804 16.4071 20.1067 11.45 22.9904C6.49298 25.8744 2.7934 30.5071 1.07791 35.9793C-0.637299 41.4514 -0.244089 47.3668 2.17977 52.5634C4.60402 57.7602 8.88391 61.8626 14.179 64.0645ZM60.9004 13.8155C63.0786 11.401 66.0403 9.83429 69.262 9.39201C72.4836 8.94946 75.7579 9.66031 78.5061 11.3985C81.2542 13.1367 83.2992 15.7901 84.2799 18.8903C85.2606 21.9905 85.1136 25.3377 83.865 28.3402L76.8057 45.3123C75.7089 47.9441 73.8243 50.172 71.4106 51.69C68.9969 53.208 66.1723 53.9417 63.3252 53.7902L68.3192 41.7857C70.2412 37.1987 70.6109 32.1092 69.372 27.2929C69.1021 26.2394 68.7589 25.2061 68.3449 24.2005C66.7137 20.2225 63.9918 16.7864 60.4927 14.2878C60.6254 14.1268 60.7615 13.9697 60.9007 13.8164L60.9004 13.8155ZM34.3733 27.6694C35.7856 24.3054 38.4739 21.6386 41.849 20.2525C45.2243 18.8668 49.011 18.8754 52.3798 20.276C55.7485 21.677 58.4245 24.3558 59.8216 27.726C61.2183 31.0963 61.2224 34.8826 59.8323 38.2559L54.5377 50.9849L41.8082 45.6916C38.4356 44.2842 35.7589 41.5966 34.3653 38.2184C32.9717 34.8404 32.9749 31.0473 34.3741 27.6714L34.3733 27.6694ZM10.2737 37.5556C11.3766 34.9137 13.2735 32.68 15.7018 31.1633C18.1302 29.6466 20.9698 28.9222 23.8279 29.0904C24.0333 29.1022 24.2386 29.1187 24.4436 29.1401C23.7191 33.3855 24.2106 37.749 25.8615 41.7265C26.2771 42.7316 26.7621 43.7063 27.3136 44.6436C29.8308 48.9326 33.6817 52.2809 38.2788 54.1786L50.2111 59.1401L50.2785 59.1681C48.3672 61.282 45.8485 62.7529 43.0681 63.379C40.2877 64.005 37.3821 63.7554 34.7492 62.6646C34.7371 62.6595 34.7254 62.6537 34.7136 62.6485C34.7017 62.6434 34.6922 62.6406 34.6818 62.6363L17.7883 55.6115L17.7076 55.5779C14.3317 54.1739 11.6517 51.4864 10.2574 48.1067C8.86318 44.727 8.86871 40.9316 10.2727 37.5557L10.2737 37.5556Z" fill="url(#paint0_linear_65_45073)" fill-opacity="0.08"/>
<defs>
<linearGradient id="paint0_linear_65_45073" x1="60.7974" y1="66.2278" x2="38.297" y2="11.6867" gradientUnits="userSpaceOnUse">
<stop stop-color="#5FE716"/>
<stop offset="1" stop-color="#209B72"/>
</linearGradient>
</defs>
</svg>
