<svg width="10" height="6" viewBox="0 0 10 6" fill="none" xmlns="http://www.w3.org/2000/svg">
<mask id="path-1-inside-1_211_48996" fill="white">
<path fill-rule="evenodd" clip-rule="evenodd" d="M0.234499 0.484438C0.269333 0.449515 0.310715 0.421808 0.356274 0.402903C0.401833 0.383998 0.450674 0.374268 0.499999 0.374268C0.549324 0.374268 0.598165 0.383998 0.643724 0.402903C0.689283 0.421808 0.730665 0.449515 0.765499 0.484438L5 4.71969L9.2345 0.484438C9.26936 0.449572 9.31076 0.421915 9.35631 0.403045C9.40187 0.384176 9.45069 0.374464 9.5 0.374464C9.54931 0.374464 9.59813 0.384176 9.64369 0.403045C9.68924 0.421915 9.73063 0.449572 9.7655 0.484438C9.80036 0.519304 9.82802 0.560695 9.84689 0.60625C9.86576 0.651805 9.87547 0.70063 9.87547 0.749938C9.87547 0.799246 9.86576 0.848071 9.84689 0.893626C9.82802 0.93918 9.80036 0.980572 9.7655 1.01544L5.2655 5.51544C5.23066 5.55036 5.18928 5.57807 5.14372 5.59697C5.09816 5.61588 5.04932 5.62561 5 5.62561C4.95067 5.62561 4.90183 5.61588 4.85627 5.59697C4.81072 5.57807 4.76933 5.55036 4.7345 5.51544L0.234499 1.01544C0.199577 0.980604 0.171869 0.939222 0.152965 0.893663C0.13406 0.848104 0.124329 0.799263 0.124329 0.749938C0.124329 0.700612 0.13406 0.651771 0.152965 0.606213C0.171869 0.560654 0.199577 0.519272 0.234499 0.484438V0.484438Z"/>
</mask>
<path fill-rule="evenodd" clip-rule="evenodd" d="M0.234499 0.484438C0.269333 0.449515 0.310715 0.421808 0.356274 0.402903C0.401833 0.383998 0.450674 0.374268 0.499999 0.374268C0.549324 0.374268 0.598165 0.383998 0.643724 0.402903C0.689283 0.421808 0.730665 0.449515 0.765499 0.484438L5 4.71969L9.2345 0.484438C9.26936 0.449572 9.31076 0.421915 9.35631 0.403045C9.40187 0.384176 9.45069 0.374464 9.5 0.374464C9.54931 0.374464 9.59813 0.384176 9.64369 0.403045C9.68924 0.421915 9.73063 0.449572 9.7655 0.484438C9.80036 0.519304 9.82802 0.560695 9.84689 0.60625C9.86576 0.651805 9.87547 0.70063 9.87547 0.749938C9.87547 0.799246 9.86576 0.848071 9.84689 0.893626C9.82802 0.93918 9.80036 0.980572 9.7655 1.01544L5.2655 5.51544C5.23066 5.55036 5.18928 5.57807 5.14372 5.59697C5.09816 5.61588 5.04932 5.62561 5 5.62561C4.95067 5.62561 4.90183 5.61588 4.85627 5.59697C4.81072 5.57807 4.76933 5.55036 4.7345 5.51544L0.234499 1.01544C0.199577 0.980604 0.171869 0.939222 0.152965 0.893663C0.13406 0.848104 0.124329 0.799263 0.124329 0.749938C0.124329 0.700612 0.13406 0.651771 0.152965 0.606213C0.171869 0.560654 0.199577 0.519272 0.234499 0.484438V0.484438Z" fill="#D2DADF"/>
<path d="M0.765499 0.484438L0.0574985 1.19065L0.0583296 1.19148L0.765499 0.484438ZM5 4.71969L4.29283 5.42673L5 6.13403L5.70717 5.42673L5 4.71969ZM9.2345 0.484438L8.52739 -0.222669L8.52733 -0.222606L9.2345 0.484438ZM9.87547 0.749938H8.87547H9.87547ZM5.2655 5.51544L4.55839 4.80833L4.5575 4.80923L5.2655 5.51544ZM4.7345 5.51544L5.4425 4.80923L5.44161 4.80833L4.7345 5.51544ZM0.234499 1.01544L0.941606 0.308331L0.940711 0.307438L0.234499 1.01544ZM0.942499 1.19065C0.884443 1.24885 0.815474 1.29503 0.739541 1.32654L-0.0269935 -0.520734C-0.194044 -0.451416 -0.345776 -0.349823 -0.473501 -0.221775L0.942499 1.19065ZM0.739541 1.32654C0.663606 1.35805 0.582204 1.37427 0.499999 1.37427V-0.625732C0.319143 -0.625732 0.14006 -0.590054 -0.0269935 -0.520734L0.739541 1.32654ZM0.499999 1.37427C0.417794 1.37427 0.336393 1.35805 0.260457 1.32654L1.02699 -0.520734C0.859938 -0.590054 0.680855 -0.625732 0.499999 -0.625732V1.37427ZM0.260457 1.32654C0.184524 1.29503 0.115555 1.24885 0.057499 1.19065L1.4735 -0.221775C1.34577 -0.349823 1.19404 -0.451416 1.02699 -0.520734L0.260457 1.32654ZM0.0583296 1.19148L4.29283 5.42673L5.70717 4.01264L1.47267 -0.222606L0.0583296 1.19148ZM5.70717 5.42673L9.94167 1.19148L8.52733 -0.222606L4.29283 4.01264L5.70717 5.42673ZM9.94161 1.19154C9.88361 1.24954 9.81477 1.29554 9.73899 1.32692L8.97363 -0.520834C8.80675 -0.45171 8.65512 -0.350393 8.52739 -0.222669L9.94161 1.19154ZM9.73899 1.32692C9.66322 1.35831 9.58201 1.37446 9.5 1.37446V-0.625536C9.31937 -0.625536 9.14051 -0.589958 8.97363 -0.520834L9.73899 1.32692ZM9.5 1.37446C9.41798 1.37446 9.33677 1.35831 9.261 1.32692L10.0264 -0.520834C9.85949 -0.589958 9.68063 -0.625536 9.5 -0.625536V1.37446ZM9.261 1.32692C9.18523 1.29554 9.11638 1.24954 9.05839 1.19154L10.4726 -0.222669C10.3449 -0.350393 10.1933 -0.45171 10.0264 -0.520834L9.261 1.32692ZM9.05839 1.19154C9.0004 1.13355 8.9544 1.06471 8.92301 0.988933L10.7708 0.223567C10.7016 0.0566852 10.6003 -0.0949455 10.4726 -0.222669L9.05839 1.19154ZM8.92301 0.988933C8.89162 0.913158 8.87547 0.831947 8.87547 0.749938H10.8755C10.8755 0.569313 10.8399 0.390451 10.7708 0.223567L8.92301 0.988933ZM8.87547 0.749938C8.87547 0.667929 8.89162 0.586718 8.92301 0.510942L10.7708 1.27631C10.8399 1.10942 10.8755 0.930563 10.8755 0.749938H8.87547ZM8.92301 0.510942C8.9544 0.43517 9.0004 0.366323 9.05839 0.308331L10.4726 1.72254C10.6003 1.59482 10.7016 1.44319 10.7708 1.27631L8.92301 0.510942ZM9.05839 0.308331L4.55839 4.80833L5.97261 6.22255L10.4726 1.72254L9.05839 0.308331ZM4.5575 4.80923C4.61556 4.75102 4.68453 4.70484 4.76046 4.67334L5.52699 6.52061C5.69404 6.45129 5.84577 6.3497 5.9735 6.22165L4.5575 4.80923ZM4.76046 4.67334C4.83639 4.64183 4.91779 4.62561 5 4.62561V6.62561C5.18086 6.62561 5.35994 6.58993 5.52699 6.52061L4.76046 4.67334ZM5 4.62561C5.08221 4.62561 5.16361 4.64183 5.23954 4.67334L4.47301 6.52061C4.64005 6.58993 4.81914 6.62561 5 6.62561V4.62561ZM5.23954 4.67334C5.31547 4.70484 5.38444 4.75102 5.4425 4.80923L4.0265 6.22165C4.15423 6.3497 4.30596 6.45129 4.47301 6.52061L5.23954 4.67334ZM5.44161 4.80833L0.941606 0.308331L-0.472608 1.72254L4.02739 6.22255L5.44161 4.80833ZM0.940711 0.307438C0.998915 0.365495 1.04509 0.434464 1.0766 0.510396L-0.770673 1.27693C-0.701355 1.44398 -0.599762 1.59571 -0.471713 1.72344L0.940711 0.307438ZM1.0766 0.510396C1.10811 0.586327 1.12433 0.667728 1.12433 0.749938H-0.875671C-0.875671 0.930798 -0.83999 1.10988 -0.770673 1.27693L1.0766 0.510396ZM1.12433 0.749938C1.12433 0.832147 1.10811 0.913549 1.0766 0.98948L-0.770673 0.222945C-0.83999 0.389994 -0.875671 0.569077 -0.875671 0.749938H1.12433ZM1.0766 0.98948C1.04509 1.06541 0.998915 1.13438 0.940711 1.19244L-0.471713 -0.223562C-0.599762 -0.0958367 -0.701355 0.055896 -0.770673 0.222945L1.0766 0.98948Z" fill="#D2DADF" mask="url(#path-1-inside-1_211_48996)"/>
</svg>
