<svg width="19" height="19" viewBox="0 0 19 19" fill="none" xmlns="http://www.w3.org/2000/svg">
<path d="M16.194 0H1.943C1.42768 0 0.933475 0.204708 0.569091 0.569092C0.204708 0.933475 0 1.42768 0 1.943V16.193C0 16.7083 0.204708 17.2025 0.569091 17.5669C0.933475 17.9313 1.42768 18.136 1.943 18.136H7.5V11.971H4.949V9.071H7.5V6.856C7.4451 6.33942 7.50451 5.8171 7.674 5.32604C7.8435 4.83499 8.11893 4.38723 8.48078 4.0145C8.84264 3.64177 9.28204 3.35319 9.76787 3.16923C10.2537 2.98527 10.774 2.91043 11.292 2.95C12.0452 2.96178 12.7965 3.02862 13.54 3.15V5.62H12.274C12.0583 5.59139 11.8389 5.61166 11.6321 5.67931C11.4252 5.74697 11.2363 5.86028 11.0792 6.01085C10.9221 6.16142 10.8009 6.3454 10.7245 6.54916C10.6481 6.75293 10.6186 6.97126 10.638 7.188V9.073H13.423L12.978 11.973H10.637V18.139H16.193C16.4482 18.139 16.7008 18.0887 16.9366 17.9911C17.1723 17.8935 17.3865 17.7503 17.5669 17.5699C17.7473 17.3895 17.8905 17.1753 17.9881 16.9396C18.0857 16.7038 18.136 16.4512 18.136 16.196V1.943C18.136 1.42786 17.9314 0.933799 17.5673 0.569445C17.2031 0.20509 16.7091 0.000265127 16.194 0Z" fill="white"/>
</svg>
