<svg width="19" height="19" viewBox="0 0 19 19" fill="none" xmlns="http://www.w3.org/2000/svg">
<path d="M17.5764 2.3307e-10H2.02638C1.68177 0.00237924 1.3522 0.141492 1.11012 0.386762C0.868037 0.632033 0.733247 0.963389 0.735376 1.308V16.829C0.733247 17.1736 0.868037 17.505 1.11012 17.7502C1.3522 17.9955 1.68177 18.1346 2.02638 18.137H17.5764C17.7478 18.137 17.9175 18.1031 18.0757 18.0373C18.234 17.9715 18.3776 17.875 18.4985 17.7534C18.6193 17.6318 18.7149 17.4876 18.7797 17.3289C18.8446 17.1703 18.8774 17.0004 18.8764 16.829V1.308C18.8774 1.13661 18.8446 0.966702 18.7797 0.808054C18.7149 0.649407 18.6193 0.50515 18.4985 0.383585C18.3776 0.26202 18.234 0.165547 18.0757 0.0997164C17.9175 0.0338856 17.7478 -3.24512e-06 17.5764 2.3307e-10ZM6.21738 15.55H3.52838V6.89H6.22138V15.55H6.21738ZM4.87238 5.708C4.56416 5.70721 4.2631 5.61508 4.00723 5.44325C3.75136 5.27142 3.55216 5.0276 3.43481 4.74261C3.31745 4.45761 3.28721 4.14422 3.3479 3.84204C3.40858 3.53986 3.55748 3.26245 3.77576 3.04486C3.99405 2.82727 4.27194 2.67927 4.57431 2.61955C4.87668 2.55983 5.18997 2.59108 5.47459 2.70935C5.75921 2.82761 6.00239 3.02759 6.1734 3.28401C6.34441 3.54043 6.43557 3.84179 6.43538 4.15C6.43525 4.35498 6.39469 4.55793 6.31604 4.74722C6.23738 4.93651 6.12217 5.10844 5.97699 5.25315C5.83181 5.39786 5.65952 5.51252 5.46998 5.59057C5.28043 5.66862 5.07736 5.70853 4.87238 5.708ZM16.2934 15.55H13.6054V11.34C13.6054 10.34 13.5854 9.04 12.2054 9.04C10.8054 9.04 10.5904 10.133 10.5904 11.263V15.55H7.90538V6.89H10.4844V8.072H10.5204C10.7786 7.63037 11.1518 7.26698 11.6001 7.02046C12.0484 6.77395 12.5551 6.65353 13.0664 6.672C15.7874 6.672 16.2934 8.465 16.2934 10.797V15.55Z" fill="white"/>
</svg>
