<svg width="177" height="27" viewBox="0 0 177 27" fill="none" xmlns="http://www.w3.org/2000/svg">
<path d="M41.2117 8.9315L35.3424 3.06216C35.3387 3.05854 35.3348 3.05519 35.3312 3.05156C35.3276 3.04794 35.3232 3.04305 35.3191 3.03887C33.6063 1.32627 31.3483 0.266786 28.9364 0.0440028C26.5245 -0.178781 24.1108 0.449173 22.1132 1.81905C20.1157 0.449173 17.702 -0.178781 15.2901 0.0440028C12.8782 0.266786 10.6202 1.32627 8.90744 3.03887L3.0381 8.90807C1.20943 10.7372 0.129849 13.1834 0.0109732 15.7671C-0.107902 18.3508 0.742496 20.8858 2.39548 22.8752C4.04847 24.8644 6.38484 26.1647 8.94665 26.521C11.5085 26.8772 14.111 26.2639 16.244 24.8011C17.9712 25.9855 20.0162 26.6196 22.1103 26.6203C24.2046 26.6209 26.2499 25.9879 27.9777 24.8044C30.1082 26.2763 32.7122 26.8982 35.2779 26.548C37.8436 26.1978 40.1856 24.901 41.844 22.912C43.5022 20.9231 44.3567 18.3859 44.2398 15.7992C44.1228 13.2122 43.0427 10.7626 41.2117 8.9315ZM13.0569 21.862C11.7319 22.4948 10.2259 22.6388 8.80494 22.2686C7.38403 21.8985 6.13971 21.0379 5.2919 19.839C4.44411 18.6401 4.04741 17.1802 4.17193 15.7171C4.29644 14.2541 4.93415 12.8821 5.97235 11.8437L11.8416 5.97438C12.7525 5.06458 13.9228 4.4591 15.1918 4.24109C16.4607 4.02309 17.766 4.20324 18.9283 4.75679L14.7766 8.90807C13.1845 10.4919 12.1538 12.5529 11.8416 14.7769C11.7728 15.2631 11.7381 15.7535 11.7378 16.2447C11.7336 18.1862 12.2781 20.0894 13.3084 21.735C13.2253 21.7794 13.1414 21.8215 13.0569 21.8615V21.862ZM26.5152 20.647C25.3464 21.8081 23.7651 22.4584 22.1176 22.4558C20.4701 22.453 18.891 21.7972 17.726 20.6324C16.5611 19.4674 15.9054 17.8883 15.9026 16.2408C15.8999 14.5933 16.5502 13.012 17.7113 11.8432L22.1132 7.44122L26.5152 11.8432C27.6806 13.0115 28.3351 14.5944 28.3351 16.2447C28.3351 17.8948 27.6806 19.4777 26.5152 20.6461V20.647ZM38.277 20.6703C37.3617 21.5833 36.1853 22.1891 34.9105 22.404C33.6357 22.619 32.3257 22.4323 31.1616 21.8699C31.078 21.8296 30.9951 21.7873 30.9132 21.7431C31.9467 20.0956 32.4929 18.1894 32.4887 16.2447C32.4883 15.7535 32.4537 15.2631 32.3849 14.7769C32.0728 12.5529 31.042 10.4919 29.4499 8.90807L25.3235 4.7819L25.3003 4.75861C26.462 4.2053 27.7667 4.02503 29.035 4.24252C30.3034 4.46002 31.4733 5.06463 32.3844 5.9734C32.3886 5.97758 32.3925 5.98205 32.3965 5.98623C32.4006 5.99042 32.4041 5.99321 32.4077 5.99683L38.2495 11.8387L38.2774 11.8666C39.4448 13.0341 40.1007 14.6176 40.1007 16.2685C40.1007 17.9195 39.4448 19.503 38.2774 20.6705L38.277 20.6703Z" fill="url(#paint0_linear_0_1)"/>
<path d="M62.6974 3.63636V24H59.0085V3.63636H62.6974ZM83.5665 3.63636V24H80.2852L70.6901 10.1293H70.521V24H66.8321V3.63636H70.1333L79.7185 17.517H79.8975V3.63636H83.5665ZM87.726 24V3.63636H100.771V6.72869H91.4149V12.2571H99.8766V15.3494H91.4149V24H87.726ZM102.88 3.63636H107.046L112.028 12.6449H112.227L117.208 3.63636H121.375L113.967 16.4034V24H110.288V16.4034L102.88 3.63636ZM140.861 3.63636V24H137.58L127.985 10.1293H127.816V24H124.127V3.63636H127.428L137.013 17.517H137.192V3.63636H140.861ZM145.021 24V3.63636H158.066V6.72869H148.71V12.2571H157.172V15.3494H148.71V24H145.021ZM160.672 6.72869V3.63636H176.92V6.72869H170.626V24H166.966V6.72869H160.672Z" fill="#D2DADF"/>
<defs>
<linearGradient id="paint0_linear_0_1" x1="22.1252" y1="0" x2="22.1252" y2="26.6434" gradientUnits="userSpaceOnUse">
<stop stop-color="#5FE716"/>
<stop offset="1" stop-color="#209B72"/>
</linearGradient>
</defs>
</svg>
