<svg width="14" height="14" viewBox="0 0 14 14" fill="none" xmlns="http://www.w3.org/2000/svg">
<path d="M10.2741 9.05133C11.1214 7.89518 11.5009 6.46176 11.3366 5.03784C11.1724 3.61391 10.4766 2.3045 9.38841 1.37157C8.30022 0.438638 6.8999 -0.0490148 5.4676 0.0061742C4.0353 0.0613632 2.67666 0.655324 1.66348 1.66923C0.650303 2.68313 0.0573143 4.0422 0.00315019 5.47454C-0.0510139 6.90687 0.437641 8.30685 1.37135 9.39437C2.30506 10.4819 3.61497 11.1768 5.03901 11.34C6.46305 11.5032 7.8962 11.1227 9.05174 10.2746H9.05087C9.07712 10.3096 9.10512 10.3428 9.13662 10.3752L12.5054 13.744C12.6694 13.9081 12.892 14.0004 13.1241 14.0005C13.3562 14.0006 13.5789 13.9085 13.7431 13.7444C13.9072 13.5803 13.9995 13.3578 13.9996 13.1256C13.9997 12.8935 13.9076 12.6709 13.7435 12.5067L10.3747 9.13796C10.3435 9.10629 10.3098 9.07704 10.2741 9.05046V9.05133ZM10.4999 5.68783C10.4999 6.31982 10.3754 6.94562 10.1335 7.5295C9.89169 8.11338 9.5372 8.6439 9.09032 9.09078C8.64344 9.53767 8.11291 9.89215 7.52903 10.134C6.94515 10.3759 6.31936 10.5003 5.68737 10.5003C5.05538 10.5003 4.42959 10.3759 3.84571 10.134C3.26183 9.89215 2.7313 9.53767 2.28442 9.09078C1.83754 8.6439 1.48305 8.11338 1.2412 7.5295C0.999349 6.94562 0.87487 6.31982 0.87487 5.68783C0.87487 4.41148 1.3819 3.1874 2.28442 2.28488C3.18694 1.38236 4.41102 0.875332 5.68737 0.875332C6.96372 0.875332 8.1878 1.38236 9.09032 2.28488C9.99284 3.1874 10.4999 4.41148 10.4999 5.68783Z" fill="#D2DADF"/>
</svg>
