<svg width="22" height="18" viewBox="0 0 22 18" fill="none" xmlns="http://www.w3.org/2000/svg">
<path d="M18.9643 4.8462C18.9773 5.0302 18.9773 5.2142 18.9773 5.3982C18.989 6.98905 18.6842 8.56636 18.0808 10.0384C17.4773 11.5104 16.5872 12.8477 15.4622 13.9725C14.3371 15.0974 12.9997 15.9873 11.5276 16.5905C10.0555 17.1937 8.47811 17.4982 6.88726 17.4862C4.57459 17.4924 2.3094 16.8302 0.364258 15.5792C0.704932 15.6169 1.04752 15.6346 1.39026 15.6322C3.30238 15.6367 5.16027 14.997 6.66426 13.8162C5.77782 13.8 4.91857 13.5074 4.20647 12.9793C3.49438 12.4511 2.965 11.7138 2.69226 10.8702C2.9569 10.9122 3.22432 10.9342 3.49226 10.9362C3.86953 10.935 4.24516 10.8863 4.61026 10.7912C3.6488 10.5961 2.78448 10.0743 2.164 9.31438C1.54353 8.55447 1.20513 7.60325 1.20626 6.6222V6.5702C1.79486 6.89861 2.45273 7.08329 3.12626 7.1092C2.22464 6.50772 1.58653 5.58485 1.34215 4.52893C1.09778 3.47301 1.26556 2.36363 1.81126 1.4272C2.87848 2.7401 4.20971 3.81406 5.71863 4.57946C7.22755 5.34486 8.88048 5.78461 10.5703 5.8702C10.5022 5.55029 10.467 5.22426 10.4653 4.8972C10.4659 4.04508 10.7226 3.21281 11.202 2.50832C11.6814 1.80384 12.3614 1.25965 13.1538 0.946319C13.9462 0.632991 14.8145 0.564985 15.646 0.75112C16.4776 0.937254 17.234 1.36894 17.8173 1.9902C18.7699 1.80736 19.6836 1.46019 20.5173 0.964199C20.2003 1.94592 19.5361 2.77829 18.6493 3.3052C19.4928 3.20902 20.3173 2.98724 21.0953 2.6472C20.5138 3.49527 19.7934 4.23907 18.9643 4.8472V4.8462Z" fill="white"/>
</svg>
